<svg width="26" height="26" viewBox="0 0 26 26" fill="none" xmlns="http://www.w3.org/2000/svg">
<path id="Union" fill-rule="evenodd" clip-rule="evenodd" d="M26 13.065C26 23.5625 23.5625 26 12.985 26C2.40751 26 0 23.5625 0 13.035V13.015C0 2.4375 2.38752 0 12.975 0C23.5625 0 26 2.4375 26 12.985V13.065ZM10.7586 4.875H10.5349C10.2427 4.90251 9.97873 4.99371 9.74302 5.14859C9.25457 5.4701 8.85784 6.07757 8.87434 6.66758C8.88386 7.00211 9.04001 7.22121 9.3428 7.32488C9.39779 7.34378 9.463 7.35172 9.52848 7.35969C9.59715 7.36805 9.66614 7.37644 9.72398 7.39756C10.1696 7.56006 10.1074 8.22562 9.62463 8.30941C9.54042 8.32401 9.45653 8.32485 9.37295 8.31195C8.69565 8.207 8.23905 7.83344 8.00313 7.19127C7.99995 7.18238 7.9936 7.17762 7.98408 7.17698C6.98337 7.10843 6.15374 7.79652 6.02551 8.78548C5.92839 9.53133 6.42573 10.1658 7.17063 10.2318C7.3198 10.2451 7.41216 10.2589 7.44771 10.2731C7.79683 10.4111 7.81523 10.9037 7.52007 11.1113C7.45299 11.1584 7.38592 11.1826 7.31885 11.1836C7.23527 11.185 7.15127 11.1845 7.0671 11.184C6.76452 11.1822 6.45953 11.1804 6.1623 11.2658C5.399 11.4858 4.93562 12.1117 4.875 12.9127V13.0917C4.93022 14.068 5.63926 14.7713 6.61584 14.8202C6.73433 14.8259 6.90075 14.8281 7.11509 14.8269C7.27632 14.826 7.3892 14.8398 7.45374 14.8681C7.90696 15.0678 7.77937 15.76 7.25029 15.7749C6.6898 15.7904 6.19341 16.1599 6.05566 16.701C5.91284 17.2612 6.13818 17.9033 6.54285 18.3067C6.93027 18.6926 7.41015 18.8692 7.98249 18.8364C7.99202 18.8359 7.99836 18.8313 8.00154 18.8224C8.24719 18.1578 8.7257 17.7827 9.43706 17.697C9.59152 17.6783 9.72313 17.7092 9.83189 17.7896C10.1283 18.009 10.0753 18.4653 9.7373 18.6082C9.67343 18.6351 9.60409 18.6409 9.53412 18.6468C9.46397 18.6527 9.39318 18.6586 9.32661 18.6859C9.00246 18.8192 8.85667 19.074 8.88926 19.4502C8.97241 20.409 9.66335 21.0641 10.6085 21.125H10.7859C11.621 21.0765 12.2919 20.5413 12.47 19.7171C12.4992 19.583 12.5142 19.3723 12.515 19.0852C12.5184 18.0224 12.5185 16.9594 12.5154 15.8961C12.5122 14.7478 10.9316 14.5555 10.6323 15.6451C10.6179 15.6974 10.6134 15.7595 10.6088 15.8215C10.6038 15.8907 10.5987 15.9599 10.58 16.0155C10.4406 16.4258 9.87346 16.4754 9.6916 16.0713C9.66261 16.0068 9.64876 15.9195 9.65002 15.8095C9.6605 14.8872 10.3879 14.1401 11.2706 13.989C11.6984 13.9158 12.1096 13.9908 12.5042 14.214L12.5085 14.2151L12.5106 14.2148L12.5126 14.2139L12.5148 14.2121L12.5157 14.2109L12.5169 14.2067V11.8101C12.5169 11.7981 12.5118 11.795 12.5014 11.8009C11.9875 12.0917 11.4188 12.1244 10.8726 11.912C10.1807 11.6432 9.66907 10.9815 9.65034 10.2235C9.64738 10.0996 9.66282 10.0012 9.69668 9.92838C9.8687 9.55894 10.4114 9.58338 10.5647 9.95662C10.5919 10.0226 10.6018 10.1094 10.6112 10.1922C10.6142 10.2185 10.6171 10.2445 10.6206 10.2692C10.7593 11.2757 12.1789 11.3868 12.4684 10.4337C12.5003 10.3289 12.5164 10.1548 12.5166 9.91124C12.5173 8.84081 12.5167 7.77028 12.515 6.69964C12.5147 6.36766 12.4341 6.05948 12.2611 5.77161C11.9327 5.22508 11.4319 4.92621 10.7586 4.875ZM15.3858 9.76018C15.8472 9.29743 16.1842 8.95985 16.3966 8.74741C16.4047 8.73937 16.4139 8.73768 16.4242 8.74233C16.9062 8.96217 17.3709 8.94366 17.8182 8.68679C18.8329 8.10376 18.8164 6.67014 17.8106 6.08869C17.6343 5.98671 17.4484 5.92566 17.2529 5.90556C16.5696 5.83479 15.9878 6.18708 15.7095 6.79455C15.5273 7.19255 15.5325 7.61044 15.725 8.04821C15.7299 8.05922 15.7281 8.06895 15.7197 8.07741L14.8507 8.94609C14.8418 8.95498 14.831 8.95942 14.8183 8.95942H13.4818C13.4737 8.95942 13.4697 8.96344 13.4697 8.97148L13.47 9.89729C13.47 9.90125 13.4716 9.90504 13.4743 9.90784C13.4771 9.91063 13.4808 9.91221 13.4846 9.91221C13.9969 9.91178 14.5098 9.9103 15.0233 9.90776C15.1676 9.90692 15.2884 9.85772 15.3858 9.76018ZM21.125 11.018V10.9164C21.0885 10.3083 20.7603 9.81825 20.2062 9.58941C19.5143 9.30377 18.757 9.55228 18.3612 10.1674C18.3025 10.2588 18.2571 10.368 18.2149 10.473C18.2107 10.4832 18.2031 10.4882 18.1921 10.4882C17.8245 10.4882 17.4569 10.4888 17.0892 10.4898C16.9489 10.49 16.8375 10.5315 16.755 10.6142C16.4613 10.9081 16.1665 11.2026 15.8707 11.4975C15.8625 11.5058 15.8526 11.5099 15.8412 11.5099L13.4881 11.5096C13.4759 11.5096 13.4697 11.5157 13.4697 11.528L13.47 12.4443C13.47 12.4555 13.4755 12.4611 13.4865 12.4611C14.3278 12.463 15.1691 12.4629 16.0104 12.4608C16.1808 12.4605 16.29 12.423 16.4039 12.3097C16.6904 12.0251 16.9769 11.7396 17.2634 11.4531C17.2698 11.4465 17.2775 11.4432 17.2866 11.4432H18.1956C18.2049 11.4432 18.2112 11.4477 18.2146 11.4566C18.4027 11.9536 18.7365 12.2678 19.2159 12.3992C19.5825 12.4995 20.0094 12.4586 20.3411 12.2799C20.825 12.0194 21.0863 11.5988 21.125 11.018ZM21.125 15.104V14.9837C20.9958 13.3291 18.8297 13.0134 18.2105 14.5568C18.2065 14.5667 18.1992 14.5717 18.1886 14.5717H17.291C17.28 14.5717 17.2694 14.5672 17.2615 14.5593C16.9943 14.2912 16.7266 14.0236 16.4585 13.7563C16.3328 13.6313 16.2284 13.5516 16.0621 13.5504C15.6677 13.5474 14.8083 13.5476 13.484 13.551C13.4745 13.551 13.4697 13.5558 13.4697 13.5653L13.47 14.4873C13.47 14.4991 13.4759 14.5051 13.4875 14.5051L15.8409 14.5047C15.8521 14.5047 15.8616 14.5086 15.8695 14.5165C16.1595 14.8038 16.4496 15.091 16.7397 15.3782C16.84 15.4774 16.9636 15.526 17.1104 15.5239C17.2765 15.5217 17.6377 15.5222 18.194 15.5251C18.2045 15.5251 18.2116 15.5301 18.2152 15.54C18.7976 17.0844 21.0266 16.7512 21.125 15.104ZM14.8513 17.0682L15.7235 17.9398C15.7317 17.9482 15.7333 17.9579 15.7282 17.9686C15.2982 18.8675 15.8729 19.9888 16.8803 20.1037C17.954 20.2265 18.7681 19.2953 18.5193 18.253C18.366 17.611 17.8623 17.1965 17.1968 17.132C16.9238 17.1056 16.6666 17.1529 16.4252 17.2739C16.4212 17.2759 16.4166 17.2766 16.4121 17.2759C16.4076 17.2751 16.4034 17.273 16.4001 17.2698C16.0794 16.9473 15.7585 16.6263 15.4375 16.3068C15.3026 16.1726 15.2042 16.1034 15.0233 16.1028C14.5111 16.1013 13.9985 16.1014 13.4856 16.1031C13.475 16.1031 13.4697 16.1083 13.4697 16.1186V17.0394C13.4697 17.0493 13.4747 17.0543 13.4846 17.0543H14.8173C14.8307 17.0543 14.842 17.0589 14.8513 17.0682Z" fill="#CF4617"/>
</svg>
